<svg width="13" height="11" viewBox="0 0 13 11" fill="none" xmlns="http://www.w3.org/2000/svg">
<g clip-path="url(#clip0_87_150)">
<path d="M2.18274 5.45453C2.18274 6.61832 1.79442 7.69303 1.14037 8.55585C1.12269 8.5302 1.10501 8.50467 1.0878 8.47855C0.509885 7.61319 0.173096 6.57303 0.173096 5.45453C0.173096 4.33603 0.509885 3.29586 1.0878 2.4305C1.10501 2.40439 1.12269 2.37886 1.14037 2.35321C1.79442 3.21603 2.18274 4.29074 2.18274 5.45453Z" fill="white"/>
<path d="M8.53796 5.45455C8.53796 6.78193 8.98359 8.04069 9.80424 9.05983C8.80497 10.1938 7.3417 10.9091 5.71136 10.9091C4.08102 10.9091 2.61775 10.1938 1.61847 9.05983C2.43901 8.04069 2.88464 6.78193 2.88464 5.45455C2.88464 4.12716 2.43901 2.8684 1.61847 1.84926C2.61775 0.71528 4.08113 0 5.71136 0C7.34158 0 8.80497 0.71528 9.80424 1.84926C8.98359 2.8684 8.53796 4.12716 8.53796 5.45455Z" fill="white"/>
<path d="M11.2495 5.45453C11.2495 6.60665 10.8923 7.67547 10.2824 8.55585C9.62819 7.69303 9.23999 6.61832 9.23999 5.45453C9.23999 4.29074 9.62819 3.21603 10.2824 2.35321C10.8923 3.23359 11.2495 4.30241 11.2495 5.45453Z" fill="white"/>
</g>
<defs>
<clipPath id="clip0_87_150">
<rect width="12" height="10.9091" fill="white" transform="translate(0.173096)"/>
</clipPath>
</defs>
</svg>
