<svg width="1063" height="324" viewBox="0 0 1063 324" fill="none" xmlns="http://www.w3.org/2000/svg">
<g clip-path="url(#clip0_27_2027)">
<path d="M281.921 148.4L263.392 176.793C263.14 177.189 262.697 177.432 262.232 177.432H220.356C220.008 177.432 219.805 177.045 219.999 176.765L240.926 145.866C241.372 144.822 241.604 143.7 241.604 142.587C241.604 141.3 241.305 140.015 240.715 138.835L239.583 136.573C239.505 136.409 239.264 136.389 239.157 136.544L150.131 265.861C142.443 255.166 136.282 243.309 131.959 230.601L239.533 70.1535C239.716 69.8929 240.095 69.9017 240.268 70.1623L281.891 135.217C284.522 139.212 284.541 144.385 281.921 148.4Z" fill="#222222"/>
<path d="M271.071 177.443H313.158C313.508 177.443 313.836 177.271 314.033 176.982L331.414 151.605C336.083 144.787 336.057 135.795 331.348 129.004L291.003 70.8197C290.912 70.6859 290.714 70.6876 290.623 70.8215L269.807 101.551C269.58 101.885 269.58 102.324 269.805 102.66L289.941 132.668C293.236 137.575 293.215 143.993 289.889 148.879L270.8 176.929C270.65 177.147 270.807 177.443 271.071 177.443Z" fill="#222222"/>
<path d="M247.517 213.665L266.046 185.272C266.298 184.876 266.741 184.633 267.206 184.633H309.08C309.428 184.633 309.631 185.02 309.437 185.3L288.512 216.198C288.066 217.243 287.834 218.364 287.834 219.477C287.834 220.764 288.133 222.05 288.723 223.229L289.855 225.492C289.933 225.656 290.174 225.675 290.281 225.52L382.133 92.166C389.821 102.861 395.982 114.718 400.305 127.426L289.905 291.911C289.721 292.172 289.343 292.163 289.17 291.902L247.547 226.848C244.916 222.852 244.897 217.679 247.517 213.665Z" fill="#222222"/>
<path d="M258.367 184.622H216.278C215.928 184.622 215.601 184.794 215.403 185.083L198.023 210.46C193.353 217.278 193.379 226.27 198.088 233.061L238.435 291.245C238.526 291.379 238.723 291.377 238.815 291.243L259.631 260.516C259.858 260.181 259.858 259.743 259.633 259.406L239.496 229.399C236.202 224.492 236.223 218.073 239.549 213.187L258.638 185.14C258.786 184.918 258.631 184.622 258.367 184.622Z" fill="#222222"/>
</g>
<path d="M495.873 135.081L493.926 128.641H484.981L483.076 135.081H478.583L487.011 108.06H491.939L500.366 135.081H495.873ZM486.12 124.852H492.787L489.475 113.712L486.12 124.852ZM521.527 132.327C520.285 133.569 518.974 134.418 517.593 134.874C516.227 135.329 514.743 135.557 513.141 135.557C511.526 135.557 510.056 135.315 508.731 134.832C507.42 134.349 506.302 133.673 505.377 132.803C504.466 131.92 503.762 130.857 503.265 129.614C502.782 128.372 502.54 126.985 502.54 125.453C502.54 123.989 502.782 122.637 503.265 121.394C503.762 120.138 504.424 119.068 505.252 118.185C506.094 117.288 507.081 116.59 508.213 116.093C509.345 115.583 510.546 115.327 511.816 115.327C513.141 115.327 514.294 115.603 515.274 116.156C516.254 116.708 516.965 117.515 517.407 118.578V115.783H521.237V124.769H517.407C517.407 123.071 516.937 121.719 515.999 120.711C515.074 119.689 513.866 119.179 512.375 119.179C511.782 119.179 511.154 119.303 510.491 119.551C509.842 119.786 509.242 120.159 508.69 120.669C508.151 121.18 507.703 121.829 507.344 122.616C506.985 123.403 506.805 124.348 506.805 125.453C506.805 126.529 506.978 127.461 507.323 128.248C507.668 129.021 508.117 129.663 508.669 130.174C509.235 130.67 509.897 131.05 510.657 131.312C511.43 131.561 512.223 131.685 513.038 131.685C514.432 131.685 515.64 131.471 516.661 131.043C517.697 130.601 518.587 130.022 519.332 129.304L521.527 132.327ZM526.02 129.532C526.02 128.4 526.324 127.413 526.932 126.571C527.539 125.715 528.333 125.004 529.313 124.438C530.307 123.872 531.439 123.451 532.708 123.175C533.992 122.885 535.297 122.74 536.622 122.74C537.354 122.74 537.982 122.754 538.506 122.781C539.031 122.809 539.562 122.851 540.1 122.906V122.14C540.1 121.132 539.707 120.38 538.92 119.883C538.147 119.386 537.126 119.137 535.856 119.137C534.696 119.137 533.516 119.303 532.315 119.634C531.114 119.952 529.975 120.421 528.899 121.042L527.159 117.688C528.429 116.956 529.789 116.383 531.238 115.969C532.702 115.541 534.241 115.327 535.856 115.327C536.905 115.327 537.933 115.445 538.941 115.679C539.962 115.914 540.874 116.301 541.674 116.839C542.489 117.377 543.137 118.081 543.621 118.951C544.104 119.807 544.345 120.87 544.345 122.14V135.081H540.1V132.244C539.424 133.293 538.423 134.108 537.098 134.687C535.787 135.267 534.372 135.557 532.853 135.557C531.915 135.557 531.024 135.426 530.182 135.164C529.354 134.915 528.636 134.536 528.029 134.025C527.422 133.514 526.932 132.886 526.559 132.141C526.2 131.381 526.02 130.512 526.02 129.532ZM533.951 131.726C534.793 131.726 535.58 131.623 536.311 131.416C537.057 131.195 537.712 130.898 538.278 130.526C538.844 130.139 539.286 129.677 539.604 129.138C539.935 128.6 540.1 128.006 540.1 127.358V126.633C539.424 126.522 538.789 126.46 538.196 126.446C537.602 126.433 537.077 126.426 536.622 126.426C534.524 126.426 532.936 126.702 531.86 127.254C530.797 127.806 530.265 128.489 530.265 129.304C530.265 130.919 531.494 131.726 533.951 131.726ZM567.536 135.081H563.25V133.3C562.421 134.032 561.586 134.591 560.744 134.977C559.902 135.364 558.943 135.557 557.866 135.557C556.624 135.557 555.471 135.309 554.408 134.812C553.345 134.315 552.427 133.624 551.654 132.741C550.895 131.844 550.295 130.774 549.853 129.532C549.425 128.289 549.211 126.93 549.211 125.453C549.211 123.989 549.425 122.637 549.853 121.394C550.295 120.138 550.895 119.068 551.654 118.185C552.427 117.288 553.345 116.59 554.408 116.093C555.471 115.583 556.624 115.327 557.866 115.327C558.943 115.327 559.902 115.514 560.744 115.886C561.586 116.245 562.421 116.791 563.25 117.522V111.932H559.523V108.06H567.536V135.081ZM563.25 120.918C562.739 120.352 562.076 119.924 561.262 119.634C560.461 119.331 559.695 119.179 558.964 119.179C557.349 119.179 556.03 119.758 555.009 120.918C554.001 122.077 553.497 123.589 553.497 125.453C553.497 127.316 554.001 128.821 555.009 129.966C556.03 131.112 557.349 131.685 558.964 131.685C559.695 131.685 560.461 131.54 561.262 131.25C562.076 130.947 562.739 130.512 563.25 129.946V120.918ZM576.336 127.068C576.543 128.393 577.171 129.497 578.22 130.381C579.283 131.25 580.705 131.685 582.486 131.685C583.88 131.685 585.088 131.471 586.109 131.043C587.144 130.601 588.035 130.022 588.78 129.304L590.975 132.327C589.733 133.569 588.414 134.418 587.02 134.874C585.64 135.329 584.128 135.557 582.486 135.557C580.995 135.557 579.607 135.309 578.324 134.812C577.04 134.315 575.929 133.624 574.99 132.741C574.051 131.844 573.313 130.781 572.774 129.552C572.25 128.324 571.988 126.957 571.988 125.453C571.988 123.989 572.229 122.643 572.712 121.415C573.209 120.173 573.899 119.103 574.783 118.205C575.68 117.294 576.75 116.59 577.992 116.093C579.235 115.583 580.608 115.327 582.113 115.327C583.673 115.327 585.088 115.597 586.358 116.135C587.627 116.659 588.711 117.426 589.608 118.433C590.519 119.441 591.23 120.676 591.741 122.14C592.252 123.589 592.507 125.232 592.507 127.068H576.336ZM587.662 123.299C587.441 122.057 586.799 121.063 585.736 120.317C584.673 119.558 583.466 119.179 582.113 119.179C580.76 119.179 579.545 119.558 578.469 120.317C577.392 121.063 576.743 122.057 576.522 123.299H587.662ZM614.849 135.081H610.563V121.85C610.563 120.939 610.466 120.269 610.273 119.841C610.093 119.4 609.769 119.179 609.3 119.179C608.444 119.179 607.899 119.662 607.664 120.628C607.443 121.581 607.333 122.975 607.333 124.811V135.081H603.046V121.85C603.046 120.939 602.95 120.269 602.757 119.841C602.563 119.4 602.225 119.179 601.742 119.179C600.9 119.179 600.369 119.662 600.148 120.628C599.941 121.581 599.837 122.975 599.837 124.811V135.081H595.551V115.783H599.878V118.578C600.182 117.515 600.631 116.708 601.224 116.156C601.818 115.603 602.612 115.327 603.606 115.327C604.434 115.327 605.124 115.583 605.676 116.093C606.242 116.59 606.629 117.281 606.836 118.164C607.319 117.198 607.816 116.487 608.326 116.031C608.851 115.562 609.652 115.327 610.728 115.327C612.054 115.327 613.068 115.817 613.772 116.797C614.49 117.764 614.849 119.234 614.849 121.208V135.081ZM630.958 113.277H625.74V108.06H630.958V113.277ZM634.892 135.081H621.93V131.23H626.196V119.655H621.93V115.783H630.482V131.23H634.892V135.081ZM641.767 129.532C641.767 128.4 642.07 127.413 642.678 126.571C643.285 125.715 644.079 125.004 645.059 124.438C646.053 123.872 647.185 123.451 648.455 123.175C649.738 122.885 651.043 122.74 652.368 122.74C653.1 122.74 653.728 122.754 654.252 122.781C654.777 122.809 655.308 122.851 655.847 122.906V122.14C655.847 121.132 655.453 120.38 654.666 119.883C653.893 119.386 652.872 119.137 651.602 119.137C650.442 119.137 649.262 119.303 648.061 119.634C646.86 119.952 645.721 120.421 644.645 121.042L642.905 117.688C644.175 116.956 645.535 116.383 646.984 115.969C648.448 115.541 649.987 115.327 651.602 115.327C652.651 115.327 653.679 115.445 654.687 115.679C655.709 115.914 656.62 116.301 657.42 116.839C658.235 117.377 658.883 118.081 659.367 118.951C659.85 119.807 660.091 120.87 660.091 122.14V135.081H655.847V132.244C655.17 133.293 654.169 134.108 652.844 134.687C651.533 135.267 650.118 135.557 648.599 135.557C647.661 135.557 646.77 135.426 645.928 135.164C645.1 134.915 644.382 134.536 643.775 134.025C643.168 133.514 642.678 132.886 642.305 132.141C641.946 131.381 641.767 130.512 641.767 129.532ZM649.697 131.726C650.539 131.726 651.326 131.623 652.057 131.416C652.803 131.195 653.458 130.898 654.024 130.526C654.59 130.139 655.032 129.677 655.35 129.138C655.681 128.6 655.847 128.006 655.847 127.358V126.633C655.17 126.522 654.535 126.46 653.942 126.446C653.348 126.433 652.824 126.426 652.368 126.426C650.27 126.426 648.682 126.702 647.606 127.254C646.543 127.806 646.011 128.489 646.011 129.304C646.011 130.919 647.24 131.726 649.697 131.726ZM706.431 135.081H702.145V133.3C701.317 134.032 700.482 134.591 699.64 134.977C698.798 135.364 697.838 135.557 696.761 135.557C695.519 135.557 694.366 135.309 693.304 134.812C692.241 134.315 691.323 133.624 690.55 132.741C689.79 131.844 689.19 130.774 688.748 129.532C688.32 128.289 688.106 126.93 688.106 125.453C688.106 123.989 688.32 122.637 688.748 121.394C689.19 120.138 689.79 119.068 690.55 118.185C691.323 117.288 692.241 116.59 693.304 116.093C694.366 115.583 695.519 115.327 696.761 115.327C697.838 115.327 698.798 115.514 699.64 115.886C700.482 116.245 701.317 116.791 702.145 117.522V111.932H698.418V108.06H706.431V135.081ZM702.145 120.918C701.634 120.352 700.972 119.924 700.157 119.634C699.357 119.331 698.59 119.179 697.859 119.179C696.244 119.179 694.926 119.758 693.904 120.918C692.896 122.077 692.393 123.589 692.393 125.453C692.393 127.316 692.896 128.821 693.904 129.966C694.926 131.112 696.244 131.685 697.859 131.685C698.59 131.685 699.357 131.54 700.157 131.25C700.972 130.947 701.634 130.512 702.145 129.946V120.918ZM715.231 127.068C715.438 128.393 716.066 129.497 717.115 130.381C718.178 131.25 719.6 131.685 721.381 131.685C722.775 131.685 723.983 131.471 725.004 131.043C726.04 130.601 726.93 130.022 727.675 129.304L729.87 132.327C728.628 133.569 727.31 134.418 725.915 134.874C724.535 135.329 723.023 135.557 721.381 135.557C719.89 135.557 718.503 135.309 717.219 134.812C715.935 134.315 714.824 133.624 713.885 132.741C712.947 131.844 712.208 130.781 711.67 129.552C711.145 128.324 710.883 126.957 710.883 125.453C710.883 123.989 711.124 122.643 711.608 121.415C712.105 120.173 712.795 119.103 713.678 118.205C714.575 117.294 715.645 116.59 716.888 116.093C718.13 115.583 719.503 115.327 721.008 115.327C722.568 115.327 723.983 115.597 725.253 116.135C726.523 116.659 727.606 117.426 728.504 118.433C729.415 119.441 730.126 120.676 730.636 122.14C731.147 123.589 731.402 125.232 731.402 127.068H715.231ZM726.557 123.299C726.336 122.057 725.695 121.063 724.632 120.317C723.569 119.558 722.361 119.179 721.008 119.179C719.655 119.179 718.441 119.558 717.364 120.317C716.287 121.063 715.638 122.057 715.417 123.299H726.557ZM777.1 128.931C776.88 130.96 776.079 132.575 774.699 133.776C773.332 134.963 771.62 135.557 769.563 135.557C768.432 135.557 767.396 135.371 766.458 134.998C765.519 134.625 764.718 134.108 764.056 133.445C763.393 132.782 762.875 131.989 762.503 131.064C762.144 130.125 761.964 129.104 761.964 127.999V119.655H757.595V115.783H761.964V108.06H766.251V115.783H774.347V119.655H766.251V127.999C766.251 129.242 766.554 130.167 767.162 130.774C767.769 131.381 768.57 131.685 769.563 131.685C770.778 131.685 771.682 131.333 772.276 130.629C772.869 129.925 773.221 129.076 773.332 128.082L777.1 128.931ZM784.679 127.068C784.886 128.393 785.514 129.497 786.563 130.381C787.626 131.25 789.048 131.685 790.828 131.685C792.223 131.685 793.43 131.471 794.452 131.043C795.487 130.601 796.378 130.022 797.123 129.304L799.318 132.327C798.076 133.569 796.757 134.418 795.363 134.874C793.983 135.329 792.471 135.557 790.828 135.557C789.338 135.557 787.95 135.309 786.667 134.812C785.383 134.315 784.272 133.624 783.333 132.741C782.394 131.844 781.656 130.781 781.117 129.552C780.593 128.324 780.331 126.957 780.331 125.453C780.331 123.989 780.572 122.643 781.055 121.415C781.552 120.173 782.242 119.103 783.126 118.205C784.023 117.294 785.093 116.59 786.335 116.093C787.578 115.583 788.951 115.327 790.456 115.327C792.016 115.327 793.43 115.597 794.7 116.135C795.97 116.659 797.054 117.426 797.951 118.433C798.862 119.441 799.573 120.676 800.084 122.14C800.595 123.589 800.85 125.232 800.85 127.068H784.679ZM796.005 123.299C795.784 122.057 795.142 121.063 794.079 120.317C793.016 119.558 791.809 119.179 790.456 119.179C789.103 119.179 787.888 119.558 786.811 120.317C785.735 121.063 785.086 122.057 784.865 123.299H796.005ZM822.177 135.081H817.891V123.175C817.891 121.67 817.608 120.628 817.042 120.048C816.476 119.469 815.655 119.179 814.578 119.179C812.991 119.179 811.693 119.821 810.685 121.104C809.692 122.388 809.195 124.162 809.195 126.426V135.081H804.908V115.783H809.195V120.628C809.622 118.958 810.416 117.66 811.576 116.735C812.735 115.797 814.164 115.327 815.862 115.327C817.836 115.327 819.382 115.969 820.5 117.253C821.618 118.537 822.177 120.511 822.177 123.175V135.081ZM839.301 113.277H834.083V108.06H839.301V113.277ZM843.235 135.081H830.273V131.23H834.539V119.655H830.273V115.783H838.825V131.23H843.235V135.081ZM868.973 129.304C868.973 130.56 868.69 131.582 868.124 132.368C867.558 133.155 866.826 133.79 865.929 134.273C865.045 134.756 864.051 135.088 862.947 135.267C861.857 135.46 860.787 135.557 859.738 135.557C857.985 135.557 856.238 135.302 854.499 134.791C852.76 134.28 851.255 133.611 849.985 132.782L851.766 129.262C853.284 130.146 854.672 130.774 855.928 131.147C857.198 131.506 858.468 131.685 859.738 131.685C861.463 131.685 862.719 131.506 863.506 131.147C864.293 130.774 864.686 130.263 864.686 129.614C864.686 129.297 864.576 129.035 864.355 128.828C864.134 128.621 863.768 128.434 863.258 128.269C862.747 128.089 862.071 127.917 861.229 127.751C860.4 127.571 859.365 127.385 858.123 127.192C857.129 127.026 856.183 126.826 855.286 126.591C854.402 126.343 853.623 125.998 852.946 125.556C852.27 125.114 851.725 124.555 851.31 123.879C850.91 123.203 850.71 122.354 850.71 121.332C850.71 120.297 850.972 119.4 851.497 118.64C852.035 117.867 852.732 117.232 853.588 116.735C854.458 116.238 855.431 115.88 856.508 115.659C857.584 115.438 858.661 115.327 859.738 115.327C861.256 115.327 862.726 115.528 864.148 115.928C865.584 116.314 866.84 116.873 867.917 117.605L866.219 120.918C865.142 120.242 864.093 119.786 863.071 119.551C862.064 119.303 860.952 119.179 859.738 119.179C859.227 119.179 858.696 119.206 858.143 119.261C857.591 119.317 857.08 119.427 856.611 119.593C856.142 119.745 855.748 119.959 855.431 120.235C855.127 120.497 854.975 120.821 854.975 121.208C854.975 121.719 855.424 122.14 856.321 122.471C857.232 122.788 858.778 123.106 860.959 123.423C862.147 123.589 863.23 123.803 864.21 124.065C865.19 124.314 866.032 124.659 866.736 125.101C867.44 125.528 867.986 126.088 868.372 126.778C868.772 127.454 868.973 128.296 868.973 129.304Z" fill="#222222"/>
<path d="M482.298 173.942C482.298 172.612 482.725 171.52 483.58 170.665C484.434 169.763 485.55 169.312 486.927 169.312H511.072C512.449 169.312 513.565 169.763 514.42 170.665C515.322 171.52 515.773 172.612 515.773 173.942V225.081H504.306V177.503C504.306 176.933 504.069 176.411 503.594 175.936C503.166 175.461 502.668 175.224 502.098 175.224H495.973C495.308 175.224 494.762 175.437 494.335 175.865C493.907 176.292 493.694 176.838 493.694 177.503V225.081H482.298V173.942ZM504.306 173.942C504.306 172.612 504.733 171.52 505.588 170.665C506.443 169.763 507.559 169.312 508.936 169.312H533.152C534.481 169.312 535.574 169.763 536.428 170.665C537.33 171.52 537.781 172.612 537.781 173.942V225.081H526.314V177.503C526.314 176.933 526.101 176.411 525.673 175.936C525.246 175.461 524.724 175.224 524.106 175.224H517.981C517.316 175.224 516.77 175.437 516.343 175.865C515.963 176.292 515.773 176.838 515.773 177.503V225.081H504.306V173.942ZM547.371 225.081C545.994 225.081 544.878 224.63 544.023 223.728C543.168 222.825 542.741 221.71 542.741 220.38V199.155C542.741 197.636 543.168 196.449 544.023 195.594C544.925 194.739 546.136 194.312 547.655 194.312H564.536C565.153 194.312 565.652 194.122 566.031 193.742C566.459 193.315 566.672 192.745 566.672 192.033V177.503C566.672 176.933 566.459 176.411 566.031 175.936C565.604 175.461 565.082 175.224 564.464 175.224H556.345C555.775 175.224 555.324 175.342 554.992 175.58C554.659 175.77 554.398 176.031 554.208 176.363L554.137 188.543H543.168V171.663C543.596 170.998 544.118 170.452 544.735 170.024C545.4 169.55 546.278 169.312 547.371 169.312H573.51C574.839 169.312 575.932 169.763 576.786 170.665C577.688 171.568 578.14 172.66 578.14 173.942V225.081H547.371ZM564.464 219.098C565.082 219.098 565.604 218.884 566.031 218.457C566.459 218.03 566.672 217.507 566.672 216.89V202.645C566.672 201.98 566.459 201.434 566.031 201.007C565.652 200.58 565.153 200.366 564.536 200.366H556.202C555.633 200.366 555.134 200.58 554.707 201.007C554.327 201.434 554.137 201.98 554.137 202.645V216.89C554.137 217.46 554.351 217.982 554.778 218.457C555.253 218.884 555.799 219.098 556.416 219.098H564.464ZM583.083 173.942C583.083 172.66 583.51 171.568 584.365 170.665C585.267 169.763 586.383 169.312 587.712 169.312H613.781C615.015 169.312 615.965 169.55 616.63 170.024C617.342 170.452 617.959 170.998 618.481 171.663V188.472H607.014L606.943 176.363C606.753 176.031 606.492 175.77 606.16 175.58C605.827 175.342 605.4 175.224 604.878 175.224H596.687C596.069 175.224 595.547 175.461 595.12 175.936C594.692 176.411 594.479 176.933 594.479 177.503V193.172H583.083V173.942ZM583.083 176.221H594.479V225.081H583.083V176.221ZM623.425 178.714H634.821C634.821 179.379 635.011 179.925 635.39 180.352C635.818 180.779 636.34 180.993 636.957 180.993H658.895V186.905H636.957C636.293 186.905 635.77 187.118 635.39 187.546C635.011 187.973 634.821 188.495 634.821 189.113H623.425V178.714ZM628.054 225.081C626.725 225.081 625.609 224.63 624.707 223.728C623.852 222.825 623.425 221.71 623.425 220.38V197.588H634.821V216.89C634.821 217.46 635.034 217.982 635.462 218.457C635.937 218.884 636.459 219.098 637.029 219.098H645.219C645.742 219.098 646.169 219.003 646.501 218.813C646.834 218.576 647.095 218.314 647.285 218.03L647.356 205.637H658.823V222.73C658.301 223.395 657.684 223.965 656.971 224.44C656.259 224.867 655.31 225.081 654.122 225.081H628.054ZM623.425 169.312H634.821V216.534H623.425V169.312ZM663.767 169.312H675.163V175.224H663.767V169.312ZM663.767 179.497H675.163V225.081H663.767V179.497ZM680.112 173.942C680.112 172.612 680.539 171.52 681.394 170.665C682.249 169.763 683.365 169.312 684.742 169.312H710.81C712.187 169.312 713.303 169.763 714.157 170.665C715.06 171.52 715.511 172.612 715.511 173.942V225.081H704.044V177.503C704.044 176.933 703.806 176.411 703.331 175.936C702.904 175.461 702.405 175.224 701.836 175.224H693.787C693.122 175.224 692.576 175.437 692.149 175.865C691.722 176.292 691.508 176.838 691.508 177.503V225.081H680.112V173.942ZM799.1 220.38C799.1 221.757 798.672 222.897 797.818 223.799C796.963 224.653 795.847 225.081 794.47 225.081H770.254C768.924 225.081 767.808 224.63 766.906 223.728C766.052 222.825 765.624 221.71 765.624 220.38V169.312H777.091V216.89C777.091 217.46 777.305 217.982 777.732 218.457C778.16 218.932 778.682 219.169 779.299 219.169H785.425C786.089 219.169 786.612 218.956 786.991 218.528C787.419 218.053 787.633 217.507 787.633 216.89V169.312H799.1V220.38ZM777.091 220.38C777.091 221.757 776.664 222.897 775.809 223.799C774.955 224.653 773.815 225.081 772.39 225.081H748.245C746.916 225.081 745.8 224.63 744.898 223.728C744.043 222.825 743.616 221.71 743.616 220.38V169.312H755.083V216.89C755.083 217.46 755.297 217.982 755.724 218.457C756.151 218.932 756.65 219.169 757.22 219.169H763.416C764.081 219.169 764.603 218.956 764.983 218.528C765.411 218.053 765.624 217.507 765.624 216.89V169.312H777.091V220.38ZM804.059 169.312H815.455V175.224H804.059V169.312ZM804.059 179.497H815.455V225.081H804.059V179.497ZM825.034 225.081C823.752 225.081 822.66 224.63 821.758 223.728C820.856 222.778 820.405 221.662 820.405 220.38V169.312H831.8V216.89C831.8 217.555 832.014 218.101 832.441 218.528C832.916 218.908 833.462 219.098 834.08 219.098H851.387V225.081H825.034ZM860.09 225.081C858.808 225.081 857.716 224.63 856.814 223.728C855.911 222.778 855.46 221.662 855.46 220.38V169.312H866.856V216.89C866.856 217.555 867.07 218.101 867.497 218.528C867.972 218.908 868.518 219.098 869.135 219.098H886.443V225.081H860.09ZM890.516 169.312H901.912V175.224H890.516V169.312ZM890.516 179.497H901.912V225.081H890.516V179.497ZM911.491 225.081C910.114 225.081 908.998 224.63 908.143 223.728C907.289 222.825 906.861 221.71 906.861 220.38V199.155C906.861 197.636 907.289 196.449 908.143 195.594C909.046 194.739 910.256 194.312 911.776 194.312H928.656C929.273 194.312 929.772 194.122 930.152 193.742C930.579 193.315 930.793 192.745 930.793 192.033V177.503C930.793 176.933 930.579 176.411 930.152 175.936C929.724 175.461 929.202 175.224 928.585 175.224H920.465C919.895 175.224 919.444 175.342 919.112 175.58C918.78 175.77 918.518 176.031 918.329 176.363L918.257 188.543H907.289V171.663C907.716 170.998 908.238 170.452 908.856 170.024C909.52 169.55 910.399 169.312 911.491 169.312H937.63C938.96 169.312 940.052 169.763 940.907 170.665C941.809 171.568 942.26 172.66 942.26 173.942V225.081H911.491ZM928.585 219.098C929.202 219.098 929.724 218.884 930.152 218.457C930.579 218.03 930.793 217.507 930.793 216.89V202.645C930.793 201.98 930.579 201.434 930.152 201.007C929.772 200.58 929.273 200.366 928.656 200.366H920.323C919.753 200.366 919.254 200.58 918.827 201.007C918.447 201.434 918.257 201.98 918.257 202.645V216.89C918.257 217.46 918.471 217.982 918.898 218.457C919.373 218.884 919.919 219.098 920.537 219.098H928.585ZM947.203 173.942C947.203 172.612 947.631 171.52 948.485 170.665C949.34 169.763 950.456 169.312 951.833 169.312H975.978C977.355 169.312 978.471 169.763 979.326 170.665C980.228 171.52 980.679 172.612 980.679 173.942V225.081H969.212V177.503C969.212 176.933 968.974 176.411 968.499 175.936C968.072 175.461 967.573 175.224 967.004 175.224H960.878C960.214 175.224 959.668 175.437 959.24 175.865C958.813 176.292 958.599 176.838 958.599 177.503V225.081H947.203V173.942ZM969.212 173.942C969.212 172.612 969.639 171.52 970.494 170.665C971.348 169.763 972.464 169.312 973.841 169.312H998.057C999.387 169.312 1000.48 169.763 1001.33 170.665C1002.24 171.52 1002.69 172.612 1002.69 173.942V225.081H991.22V177.503C991.22 176.933 991.006 176.411 990.579 175.936C990.152 175.461 989.629 175.224 989.012 175.224H982.887C982.222 175.224 981.676 175.437 981.249 175.865C980.869 176.292 980.679 176.838 980.679 177.503V225.081H969.212V173.942ZM1007.65 169.312H1019.04V177.147L1007.65 180.352V169.312ZM1047.92 202.289C1047.92 201.767 1047.69 201.292 1047.21 200.865C1046.74 200.437 1046.24 200.224 1045.72 200.224H1029.12C1027.65 200.224 1026.41 199.772 1025.42 198.87C1024.47 197.921 1023.99 196.639 1023.99 195.024V189.255H1035.39V191.961C1035.39 192.531 1035.6 193.054 1036.03 193.528C1036.5 193.956 1037.05 194.169 1037.67 194.169H1054.19C1055.71 194.169 1056.95 194.668 1057.89 195.665C1058.89 196.662 1059.39 197.897 1059.39 199.369V204.426H1047.92V202.289ZM1028.62 225.081C1027.43 225.081 1026.48 224.867 1025.77 224.44C1025.06 223.965 1024.47 223.395 1023.99 222.73V205.85H1035.39L1035.46 218.03C1035.65 218.314 1035.91 218.576 1036.24 218.813C1036.58 219.003 1037 219.098 1037.52 219.098H1045.64C1046.31 219.098 1046.86 218.884 1047.28 218.457C1047.71 218.03 1047.92 217.507 1047.92 216.89V201.221H1059.39V220.38C1059.39 221.71 1058.94 222.825 1058.04 223.728C1057.18 224.63 1056.09 225.081 1054.76 225.081H1028.62ZM1023.99 173.942C1023.99 172.66 1024.42 171.568 1025.27 170.665C1026.18 169.763 1027.29 169.312 1028.62 169.312H1054.69C1055.92 169.312 1056.87 169.55 1057.54 170.024C1058.25 170.452 1058.87 170.998 1059.39 171.663V188.472H1047.92L1047.85 176.363C1047.66 176.031 1047.4 175.77 1047.07 175.58C1046.74 175.342 1046.31 175.224 1045.79 175.224H1037.6C1036.98 175.224 1036.46 175.461 1036.03 175.936C1035.6 176.411 1035.39 176.933 1035.39 177.503V193.172H1023.99V173.942Z" fill="#222222"/>
<g clip-path="url(#clip1_27_2027)">
<path d="M104.526 71.5646C136.952 59.7957 178.437 32.6272 227.588 47.7572C238.381 51.0848 224.674 48.1525 217.687 47.5305C176.642 43.918 147.112 64.1374 106.761 78.0878C54.0425 96.3156 28.6003 91.8575 42.0017 68.5894C44.2124 65.5591 38.5803 73.9974 38.5803 73.9974C-10.4542 146.234 11.9274 228.938 51.416 271.375C58.6809 279.185 66.5174 286.168 74.9105 292.078C83.9854 298.47 104.994 309.794 115.393 312.831C121.484 314.608 118.75 315.19 104.789 311.458C98.9095 309.889 83.6766 304.763 70.6299 296.309C59.381 289.023 49.4836 281.339 39.9318 271.077C-6.4365 221.25 -25.5036 116.48 55.9321 42.2114C116.28 -12.8335 216 -16.115 277.053 49.5037C281.493 54.2713 290.917 67.6335 280.931 56.9033C221.827 -6.61048 117.906 -8.20683 61.3593 47.074C51.3977 56.8083 25.5305 100.241 104.526 71.5646Z" fill="#222222"/>
</g>
<defs>
<clipPath id="clip0_27_2027">
<rect width="284.897" height="284.897" fill="white" transform="translate(123.683 38.5845)"/>
</clipPath>
<clipPath id="clip1_27_2027">
<rect width="285.355" height="313.626" fill="white" transform="translate(0 0.595947)"/>
</clipPath>
</defs>
</svg>
